#Comment line ignore any data following # character 
#Hierarchical Translation and Rotation (.htr) file 
[Header]	
#Header keywords are followed by a single value 
FileType HTR		#Single word string
DataType HTRS		#Translation followed by rotation and scale data
FileVersion 1		#integer
NumSegments 64		#integer
NumFrames 3		#integer
DataFrameRate 30		#integer, data frame rate in this file
EulerRotationOrder ZYX
CalibrationUnits mm
RotationUnits Degrees
GlobalAxisofGravity Y
BoneLengthAxis Y
ScaleFactor 1.00
[SegmentNames&Hierarchy]
#CHILD	PARENT
Pinger_Root GLOBAL
Pelvis Pinger_Root
L_Hip Pelvis
R_Hip Pelvis
Rear_Leg01 Pelvis
Spine1 Pelvis
L_Leg01 L_Hip
L_Leg02 L_Leg01
L_Leg03 L_Leg02
L_Foot L_Leg03
L_Toe1_01 L_Foot
L_Toe2_01 L_Foot
L_Toe3_01 L_Foot
planeAlignerLeft L_Foot
L_Toe1_02 L_Toe1_01
L_Toe1_03 L_Toe1_02
L_Toe2_02 L_Toe2_01
L_Toe2_03 L_Toe2_02
L_Toe3_02 L_Toe3_01
L_Toe3_03 L_Toe3_02
planeLockWeightLeft planeAlignerLeft
R_Leg01 R_Hip
R_Leg02 R_Leg01
R_Leg03 R_Leg02
R_Foot R_Leg03
planeAlignerRight R_Foot
R_Toe1_01 R_Foot
R_Toe2_01 R_Foot
R_Toe3_01 R_Foot
planeLockWeightRight planeAlignerRight
R_Toe1_02 R_Toe1_01
R_Toe1_03 R_Toe1_02
R_Toe2_02 R_Toe2_01
R_Toe2_03 R_Toe2_02
R_Toe3_02 R_Toe3_01
R_Toe3_03 R_Toe3_02
Rear_Leg02 Rear_Leg01
Rear_Leg03 Rear_Leg02
Rear_Leg04 Rear_Leg03
Rear_Foot Rear_Leg04
planeAlignerCenter Rear_Foot
Rear_Toe1_01 Rear_Foot
Rear_Toe2_01 Rear_Foot
Rear_Toe3_01 Rear_Foot
planeLockWeightCenter planeAlignerCenter
Rear_Toe1_02 Rear_Toe1_01
Rear_Toe1_03 Rear_Toe1_02
Rear_Toe2_02 Rear_Toe2_01
Rear_Toe2_03 Rear_Toe2_02
Rear_Toe3_02 Rear_Toe3_01
Rear_Toe3_03 Rear_Toe3_02
Back_Bone Spine1
Head Spine1
Motor_Bone Back_Bone
Ping_Mechanism Back_Bone
BN_LookIK Head
bottomMouth Head
L_Mouth01 Head
L_mouthFront Head
mouthGun Head
R_Mouth01 Head
R_mouthFront Head
TopMouth Head
weapon_bone Head
[BasePosition]
#SegmentName Tx, Ty, Tz, Rx, Ry, Rz, BoneLength
Pinger_Root 0.000000 0.000000 0.000000 -90.000000 0.000000 0.000000 10.000000 
Pelvis 0.000000 0.000000 0.000000 0.000000 0.000000 0.000000 10.000000 
L_Hip 0.000000 0.000000 0.000000 0.000000 0.000000 0.000000 10.000000 
R_Hip 0.000000 0.000000 0.000000 0.000000 0.000000 0.000000 10.000000 
Rear_Leg01 0.000000 0.000000 0.000000 0.000000 0.000000 0.000000 10.000000 
Spine1 0.000000 0.000000 0.000000 0.000000 0.000000 0.000000 10.000000 
L_Leg01 0.000000 0.000000 0.000000 0.000000 0.000000 0.000000 10.000000 
L_Leg02 0.000000 0.000000 0.000000 0.000000 0.000000 0.000000 10.000000 
L_Leg03 0.000000 0.000000 0.000000 0.000000 0.000000 0.000000 10.000000 
L_Foot 0.000000 0.000000 0.000000 0.000000 0.000000 0.000000 10.000000 
L_Toe1_01 0.000000 0.000000 0.000000 0.000000 0.000000 0.000000 10.000000 
L_Toe2_01 0.000000 0.000000 0.000000 0.000000 0.000000 0.000000 10.000000 
L_Toe3_01 0.000000 0.000000 0.000000 0.000000 0.000000 0.000000 10.000000 
planeAlignerLeft 0.000000 0.000000 0.000000 0.000000 0.000000 0.000000 10.000000 
L_Toe1_02 0.000000 0.000000 0.000000 0.000000 0.000000 0.000000 10.000000 
L_Toe1_03 0.000000 0.000000 0.000000 0.000000 0.000000 0.000000 10.000000 
L_Toe2_02 0.000000 0.000000 0.000000 0.000000 0.000000 0.000000 10.000000 
L_Toe2_03 0.000000 0.000000 0.000000 0.000000 0.000000 0.000000 10.000000 
L_Toe3_02 0.000000 0.000000 0.000000 0.000000 0.000000 0.000000 10.000000 
L_Toe3_03 0.000000 0.000000 0.000000 0.000000 0.000000 0.000000 10.000000 
planeLockWeightLeft 0.000000 0.000000 0.000000 0.000000 0.000000 0.000000 10.000000 
R_Leg01 0.000000 0.000000 0.000000 0.000000 0.000000 0.000000 10.000000 
R_Leg02 0.000000 0.000000 0.000000 0.000000 0.000000 0.000000 10.000000 
R_Leg03 0.000000 0.000000 0.000000 0.000000 0.000000 0.000000 10.000000 
R_Foot 0.000000 0.000000 0.000000 0.000000 0.000000 0.000000 10.000000 
planeAlignerRight 0.000000 0.000000 0.000000 0.000000 0.000000 0.000000 10.000000 
R_Toe1_01 0.000000 0.000000 0.000000 0.000000 0.000000 0.000000 10.000000 
R_Toe2_01 0.000000 0.000000 0.000000 0.000000 0.000000 0.000000 10.000000 
R_Toe3_01 0.000000 0.000000 0.000000 0.000000 0.000000 0.000000 10.000000 
planeLockWeightRight 0.000000 0.000000 0.000000 0.000000 0.000000 0.000000 10.000000 
R_Toe1_02 0.000000 0.000000 0.000000 0.000000 0.000000 0.000000 10.000000 
R_Toe1_03 0.000000 0.000000 0.000000 0.000000 0.000000 0.000000 10.000000 
R_Toe2_02 0.000000 0.000000 0.000000 0.000000 0.000000 0.000000 10.000000 
R_Toe2_03 0.000000 0.000000 0.000000 0.000000 0.000000 0.000000 10.000000 
R_Toe3_02 0.000000 0.000000 0.000000 0.000000 0.000000 0.000000 10.000000 
R_Toe3_03 0.000000 0.000000 0.000000 0.000000 0.000000 0.000000 10.000000 
Rear_Leg02 0.000000 0.000000 0.000000 0.000000 0.000000 0.000000 10.000000 
Rear_Leg03 0.000000 0.000000 0.000000 0.000000 0.000000 0.000000 10.000000 
Rear_Leg04 0.000000 0.000000 0.000000 0.000000 0.000000 0.000000 10.000000 
Rear_Foot 0.000000 0.000000 0.000000 0.000000 0.000000 0.000000 10.000000 
planeAlignerCenter 0.000000 0.000000 0.000000 0.000000 0.000000 0.000000 10.000000 
Rear_Toe1_01 0.000000 0.000000 0.000000 0.000000 0.000000 0.000000 10.000000 
Rear_Toe2_01 0.000000 0.000000 0.000000 0.000000 0.000000 0.000000 10.000000 
Rear_Toe3_01 0.000000 0.000000 0.000000 0.000000 0.000000 0.000000 10.000000 
planeLockWeightCenter 0.000000 0.000000 0.000000 0.000000 0.000000 0.000000 10.000000 
Rear_Toe1_02 0.000000 0.000000 0.000000 0.000000 0.000000 0.000000 10.000000 
Rear_Toe1_03 0.000000 0.000000 0.000000 0.000000 0.000000 0.000000 10.000000 
Rear_Toe2_02 0.000000 0.000000 0.000000 0.000000 0.000000 0.000000 10.000000 
Rear_Toe2_03 0.000000 0.000000 0.000000 0.000000 0.000000 0.000000 10.000000 
Rear_Toe3_02 0.000000 0.000000 0.000000 0.000000 0.000000 0.000000 10.000000 
Rear_Toe3_03 0.000000 0.000000 0.000000 0.000000 0.000000 0.000000 10.000000 
Back_Bone 0.000000 0.000000 0.000000 0.000000 0.000000 0.000000 10.000000 
Head 0.000000 0.000000 0.000000 0.000000 0.000000 0.000000 10.000000 
Motor_Bone 0.000000 0.000000 0.000000 0.000000 0.000000 0.000000 10.000000 
Ping_Mechanism 0.000000 0.000000 0.000000 0.000000 0.000000 0.000000 10.000000 
BN_LookIK 0.000000 0.000000 0.000000 0.000000 0.000000 0.000000 10.000000 
bottomMouth 0.000000 0.000000 0.000000 0.000000 0.000000 0.000000 10.000000 
L_Mouth01 0.000000 0.000000 0.000000 0.000000 0.000000 0.000000 10.000000 
L_mouthFront 0.000000 0.000000 0.000000 0.000000 0.000000 0.000000 10.000000 
mouthGun 0.000000 0.000000 0.000000 0.000000 0.000000 0.000000 10.000000 
R_Mouth01 0.000000 0.000000 0.000000 0.000000 0.000000 0.000000 10.000000 
R_mouthFront 0.000000 0.000000 0.000000 0.000000 0.000000 0.000000 10.000000 
TopMouth 0.000000 0.000000 0.000000 0.000000 0.000000 0.000000 10.000000 
weapon_bone 0.000000 0.000000 0.000000 0.000000 0.000000 0.000000 10.000000 
#Beginning of Data. Separated by tabs
#Fr	Tx	Ty	Tz	Rx	Ry	Rz	SF
[Pinger_Root]
48 0.000000 0.000000 0.000000 -0.000075 -0.000000 -0.000020 0.000000
49 0.000000 0.000000 0.000000 -0.000075 -0.000000 -0.000020 0.000000
50 0.000000 0.000000 0.000000 -0.000075 -0.000000 -0.000020 0.000000
[Pelvis]
48 618.259949 592.465332 4518.357422 27.296431 -82.017883 -24.548914 4598.784180
49 600.002319 593.169617 4568.573242 37.490013 -82.267159 -35.363438 4645.828125
50 554.562073 596.957214 4604.215820 53.324757 -83.452942 -52.541229 4675.756348
[L_Hip]
48 5.766392 125.831482 872.656799 160.158691 -45.484905 122.312202 881.701050
49 5.766392 125.831482 872.656799 160.158691 -45.484905 122.312202 881.701050
50 5.766392 125.831482 872.656799 160.158691 -45.484905 122.312202 881.701050
[R_Hip]
48 5.765438 125.836372 -872.654907 -6.992488 77.906639 72.536072 881.699829
49 5.765438 125.836372 -872.654907 10.382097 75.181709 90.411652 881.699829
50 5.765438 125.836372 -872.654907 21.037630 71.568222 101.912132 881.699829
[Rear_Leg01]
48 -192.298416 -925.602966 -0.001907 -179.730698 -4.705343 -149.247299 945.367432
49 -192.298416 -925.602966 -0.001907 179.619690 -4.886559 -150.443130 945.367432
50 -192.298416 -925.602966 -0.001907 177.783752 -5.538373 -151.694031 945.367432
[Spine1]
48 290.604584 5.007505 0.000477 -4.428322 -3.673038 26.395054 290.647736
49 290.604584 5.007505 0.000477 -2.212452 -2.987006 27.858555 290.647736
50 290.604584 5.007505 0.000477 0.556027 -1.496521 28.449430 290.647736
[L_Leg01]
48 761.932007 -0.002384 -0.069261 25.537836 -29.906225 -2.748794 761.932068
49 761.932007 -0.002384 -0.069261 26.968773 -28.673267 -4.324067 761.932068
50 761.932007 -0.002384 -0.069261 28.517202 -26.374990 -5.259796 761.932068
[L_Leg02]
48 1441.140503 -0.000954 -0.000715 -1.011957 1.019354 -86.952621 1441.140503
49 1441.140503 -0.000954 -0.000715 -1.115649 0.948837 -92.915009 1441.140503
50 1441.140503 -0.000954 -0.000715 -1.313823 0.760633 -105.891632 1441.140503
[L_Leg03]
48 1686.963989 -0.000715 -0.000954 0.165399 0.008032 64.988899 1686.963989
49 1686.963989 -0.000715 -0.000954 0.140831 -0.003595 72.909363 1686.963989
50 1686.963989 -0.000715 -0.000954 0.079406 -0.013286 88.987503 1686.963989
[L_Foot]
48 3041.570068 -30.715107 11.297464 -7.273730 12.264256 47.451221 3041.746094
49 3041.570068 -30.715107 11.297464 -6.891545 12.372788 46.352856 3041.746094
50 3041.570068 -30.715107 11.297464 -6.235066 12.563122 44.678326 3041.746094
[L_Toe1_01]
48 -188.216690 -224.732346 -21.137953 93.527199 -7.716499 -172.073456 293.899567
49 -188.216690 -224.732346 -21.137953 94.053650 -7.430840 -172.780624 293.899567
50 -188.216690 -224.732346 -21.137953 93.732376 -9.539447 -164.747131 293.899567
[L_Toe2_01]
48 200.746536 -219.926590 148.838394 -93.151604 -29.764547 -44.806812 332.896027
49 200.746536 -219.926590 148.838394 -88.996399 -24.401258 -56.458660 332.896027
50 200.746536 -219.926590 148.838394 -85.693069 -22.611366 -65.562973 332.896027
[L_Toe3_01]
48 188.832520 -219.859131 -191.078659 -99.395882 20.330433 -66.096802 347.140900
49 188.832520 -219.859131 -191.078659 -101.324875 15.249606 -74.296577 347.140900
50 188.832520 -219.859131 -191.078659 -99.877098 7.473500 -82.630997 347.140900
[planeAlignerLeft]
48 0.812531 -811.448792 -0.314951 0.000000 -90.000000 -90.001900 811.449280
49 0.812531 -811.448792 -0.314951 0.000000 -90.000000 -90.001900 811.449280
50 0.812531 -811.448792 -0.314951 0.000000 -90.000000 -90.001900 811.449280
[L_Toe1_02]
48 413.761139 0.000477 0.000000 0.001390 -25.160236 0.001390 413.761139
49 413.761139 0.000477 0.000000 0.001391 -25.013973 0.001391 413.761139
50 413.761139 0.000477 0.000000 0.001418 -21.716108 0.001418 413.761139
[L_Toe1_03]
48 464.317322 0.000358 -0.000089 0.002870 41.733864 0.002870 464.317322
49 464.317322 0.000358 -0.000089 0.005900 67.052467 0.005900 464.317322
50 464.317322 0.000358 -0.000089 0.022638 84.056534 0.022638 464.317322
[L_Toe2_02]
48 342.235809 -0.000477 0.000238 0.004687 -80.389633 0.004687 342.235809
49 342.235809 -0.000477 0.000238 0.001184 -74.612030 0.001184 342.235809
50 342.235809 -0.000477 0.000238 -0.002488 -47.993099 -0.002488 342.235809
[L_Toe2_03]
48 420.210846 -0.000715 0.000000 -179.999481 61.497639 -179.995865 420.210846
49 420.210846 -0.000715 0.000000 -179.961288 88.371773 -179.957794 420.210846
50 420.210846 -0.000715 0.000000 0.006843 44.843834 -0.000730 420.210846
[L_Toe3_02]
48 329.270111 0.000954 0.000000 0.004676 -84.325874 0.004676 329.270111
49 329.270111 0.000954 0.000000 0.001179 -79.615013 0.001179 329.270111
50 329.270111 0.000954 0.000000 -0.002396 -61.725117 -0.002396 329.270111
[L_Toe3_03]
48 439.137451 -0.001907 0.000954 179.992432 54.963924 179.999771 439.137451
49 439.137451 -0.001907 0.000954 -179.993607 81.910484 -179.990097 439.137451
50 439.137451 -0.001907 0.000954 -0.000363 59.364479 -0.003988 439.137451
[planeLockWeightLeft]
48 -0.000954 0.000238 -0.000305 -0.011826 -0.004376 0.005620 0.001029
49 -0.000954 0.000238 -0.000305 -0.011826 -0.004376 0.005620 0.001029
50 -0.000954 0.000238 -0.000305 -0.011826 -0.004376 0.005620 0.001029
[R_Leg01]
48 761.455627 -0.001907 -0.000358 115.347496 1.184492 71.333168 761.455688
49 761.455627 -0.001907 -0.000358 115.155396 3.442755 68.538612 761.455688
50 761.455627 -0.001907 -0.000358 114.861938 5.484673 67.379623 761.455688
[R_Leg02]
48 1441.140625 0.000000 -0.000238 -0.201570 0.084590 -90.624413 1441.140625
49 1441.140625 0.000000 -0.000238 -0.093725 0.083570 -89.038986 1441.140625
50 1441.140625 0.000000 -0.000238 0.143546 0.080029 -84.948074 1441.140625
[R_Leg03]
48 1686.963989 0.000954 0.001431 0.047315 -0.021047 122.438927 1686.963989
49 1686.963989 0.000954 0.001431 0.040780 -0.018697 121.312988 1686.963989
50 1686.963989 0.000954 0.001431 0.033096 -0.014061 119.252083 1686.963989
[R_Foot]
48 3041.560059 -30.531288 -11.204481 -11.198245 -18.677755 48.666691 3041.734131
49 3041.560059 -30.531288 -11.204481 -10.426063 -20.694315 48.732109 3041.734131
50 3041.560059 -30.531288 -11.204481 -9.415180 -22.692488 47.947056 3041.734131
[planeAlignerRight]
48 -0.635147 -812.270569 -0.364304 0.000000 -89.960434 -90.005180 812.270874
49 -0.635147 -812.270569 -0.364304 0.000000 -89.960434 -90.005180 812.270874
50 -0.635147 -812.270569 -0.364304 0.000000 -89.960434 -90.005180 812.270874
[R_Toe1_01]
48 -188.383347 -224.864899 21.052242 77.501541 2.586258 -171.440567 294.101532
49 -188.383347 -224.864899 21.052242 77.501541 2.586340 -171.440659 294.101532
50 -188.383347 -224.864899 21.052242 77.501526 2.586421 -171.440765 294.101532
[R_Toe2_01]
48 200.637817 -220.002121 -148.787384 -87.001068 41.735069 -47.411743 332.857574
49 200.637817 -220.002121 -148.787384 -87.001053 41.735474 -47.411583 332.857574
50 200.637817 -220.002121 -148.787384 -87.001038 41.735863 -47.411419 332.857574
[R_Toe3_01]
48 188.606735 -220.092957 191.126343 -74.774208 -14.746099 -63.949127 347.192566
49 188.606735 -220.092957 191.126343 -74.774231 -14.746103 -63.949142 347.192566
50 188.606735 -220.092957 191.126343 -74.774231 -14.746103 -63.949142 347.192566
[planeLockWeightRight]
48 -0.000477 0.000000 0.000000 -0.011823 -0.004379 -0.000027 0.000477
49 -0.000477 0.000000 0.000000 -0.011823 -0.004379 -0.000027 0.000477
50 -0.000477 0.000000 0.000000 -0.011823 -0.004379 -0.000027 0.000477
[R_Toe1_02]
48 413.762085 0.000477 -0.000119 0.001417 -21.779541 0.001417 413.762085
49 413.762085 0.000477 -0.000119 0.001417 -21.778509 0.001417 413.762085
50 413.762085 0.000477 -0.000119 0.001417 -21.777473 0.001417 413.762085
[R_Toe1_03]
48 464.317810 0.000000 0.001088 0.000899 28.912771 -0.003161 464.317810
49 464.317810 0.000000 0.001088 0.000899 28.912956 -0.003161 464.317810
50 464.317810 0.000000 0.001088 0.000899 28.913130 -0.003161 464.317810
[R_Toe2_02]
48 342.234741 -0.000954 0.000238 -0.002334 -78.683090 -0.002334 342.234741
49 342.234741 -0.000954 0.000238 -0.002334 -78.680244 -0.002334 342.234741
50 342.234741 -0.000954 0.000238 -0.002334 -78.677383 -0.002334 342.234741
[R_Toe2_03]
48 420.210846 0.000715 -0.000268 -179.994690 71.300629 -179.998230 420.210846
49 420.210846 0.000715 -0.000268 -179.994690 71.300629 -179.998230 420.210846
50 420.210846 0.000715 -0.000268 -179.994690 71.300629 -179.998230 420.210846
[R_Toe3_02]
48 329.270355 -0.000477 -0.000954 0.001175 -84.063934 0.001175 329.270355
49 329.270355 -0.000477 -0.000954 0.001175 -84.064522 0.001175 329.270355
50 329.270355 -0.000477 -0.000954 0.001175 -84.065216 0.001175 329.270355
[R_Toe3_03]
48 439.137939 0.000238 0.001431 -179.995346 57.499462 -179.988052 439.137939
49 439.137939 0.000238 0.001431 -179.995346 57.499306 -179.988052 439.137939
50 439.137939 0.000238 0.001431 -179.995346 57.499165 -179.988052 439.137939
[Rear_Leg02]
48 1162.777710 -0.029802 0.005960 1.269844 -2.974803 -126.920120 1162.777710
49 1162.777710 -0.029802 0.005960 1.163186 -2.944477 -127.975250 1162.777710
50 1162.777710 -0.029802 0.005960 1.055978 -2.916104 -129.030273 1162.777710
[Rear_Leg03]
48 607.192505 -0.013351 -0.073195 0.010480 -0.005130 68.518791 607.192505
49 607.192505 -0.013351 -0.073195 0.010507 -0.005076 67.922539 607.192505
50 607.192505 -0.013351 -0.073195 0.010533 -0.005021 67.326248 607.192505
[Rear_Leg04]
48 995.874512 -0.020504 -0.011921 -0.040165 -0.018861 67.053085 995.874573
49 995.874512 -0.020504 -0.011921 -0.039922 -0.019371 65.593910 995.874573
50 995.874512 -0.020504 -0.011921 -0.043914 -0.017133 64.438576 995.874573
[Rear_Foot]
48 3096.176270 -0.067472 -0.041425 -167.419586 76.746559 18.591728 3096.176270
49 3096.176270 -0.067472 -0.041425 -167.235428 77.191002 19.513384 3096.176270
50 3096.176270 -0.067472 -0.041425 -166.702240 78.079720 20.815907 3096.176270
[planeAlignerCenter]
48 0.350077 0.966311 -838.790894 0.000009 0.000003 -179.999985 838.791565
49 0.350077 0.966311 -838.790894 0.000009 0.000003 -179.999985 838.791565
50 0.350077 0.966311 -838.790894 0.000009 0.000003 -179.999985 838.791565
[Rear_Toe1_01]
48 0.653352 83.966492 -371.173737 -5.957896 41.879059 89.685997 380.553192
49 0.653352 83.966492 -371.173737 -2.721073 41.898735 90.066185 380.553192
50 0.653352 83.966492 -371.173737 -0.819733 41.906826 90.287933 380.553192
[Rear_Toe2_01]
48 178.200760 -294.826019 -362.060547 -7.200831 34.403343 -66.272148 499.765686
49 178.200760 -294.826019 -362.060547 -7.200514 34.403648 -66.272079 499.765686
50 178.200760 -294.826019 -362.060547 -7.200211 34.403831 -66.272018 499.765686
[Rear_Toe3_01]
48 -153.359680 -308.780914 -362.060852 3.290407 33.510777 -112.542229 499.952881
49 -153.359680 -308.780914 -362.060852 3.290317 33.511353 -112.542198 499.952881
50 -153.359680 -308.780914 -362.060852 3.290257 33.511837 -112.542130 499.952881
[planeLockWeightCenter]
48 -0.000062 0.000238 0.000000 -0.011814 -0.004373 -0.000015 0.000246
49 -0.000062 0.000238 0.000000 -0.011814 -0.004373 -0.000015 0.000246
50 -0.000062 0.000238 0.000000 -0.011814 -0.004373 -0.000015 0.000246
[Rear_Toe1_02]
48 379.707825 0.194073 0.000477 -0.000242 -31.681929 0.006934 379.707855
49 379.707825 0.194073 0.000477 -0.000242 -31.681540 0.006934 379.707855
50 379.707825 0.194073 0.000477 -0.000242 -31.681198 0.006934 379.707855
[Rear_Toe1_03]
48 500.129700 0.165701 0.000119 -0.000101 51.919483 0.007296 500.129761
49 500.129700 0.165701 0.000119 -0.000102 51.917877 0.007296 500.129761
50 500.129700 0.165701 0.000119 -0.000102 51.916786 0.007296 500.129761
[Rear_Toe2_02]
48 340.494507 0.000238 -0.000954 0.001192 -69.860428 0.001192 340.494507
49 340.494507 0.000238 -0.000954 0.001192 -69.860138 0.001192 340.494507
50 340.494507 0.000238 -0.000954 0.001192 -69.859741 0.001192 340.494507
[Rear_Toe2_03]
48 433.103577 0.000000 0.000238 0.006696 69.810143 0.006696 433.103546
49 433.103577 0.000000 0.000238 0.006696 69.810326 0.006696 433.103546
50 433.103577 0.000000 0.000238 0.006696 69.810326 0.006696 433.103546
[Rear_Toe3_02]
48 340.494141 -0.000358 -0.000477 0.008290 -67.280571 -0.009462 340.494171
49 340.494141 -0.000358 -0.000477 0.008290 -67.280243 -0.009462 340.494171
50 340.494141 -0.000358 -0.000477 0.008290 -67.279846 -0.009462 340.494171
[Rear_Toe3_03]
48 433.103577 0.001431 -0.000238 -0.000972 65.958908 -0.004547 433.103546
49 433.103577 0.001431 -0.000238 -0.000972 65.958984 -0.004547 433.103546
50 433.103577 0.001431 -0.000238 -0.000972 65.958984 -0.004547 433.103546
[Back_Bone]
48 1312.175781 -701.934692 0.000954 -7.988387 1.950982 -86.505684 1488.125488
49 1312.175781 -701.934692 0.000954 -8.072325 2.355814 -87.312546 1488.125488
50 1312.175781 -701.934692 0.000954 -7.758191 2.107971 -87.284554 1488.125488
[Head]
48 1406.159424 809.709290 0.001431 0.727816 -1.066543 17.557640 1622.625488
49 1406.159424 809.709290 0.001431 0.037537 -1.476346 15.719720 1622.625488
50 1406.159424 809.709290 0.001431 0.024686 -1.476793 14.192159 1622.625488
[Motor_Bone]
48 1158.364380 -417.834747 0.000477 -0.370436 0.513552 -104.890244 1231.419434
49 1158.364380 -417.834747 0.000477 -0.093843 0.078018 -103.611740 1231.419434
50 1158.364380 -417.834747 0.000477 -0.093998 0.077810 -103.850632 1231.419434
[Ping_Mechanism]
48 1199.324097 -429.751068 36.784504 0.000103 -0.000053 82.120995 1274.526367
49 1193.217773 -426.649872 31.535175 0.000103 -0.000053 82.120995 1267.593384
50 1190.439575 -423.620667 19.773994 0.000103 -0.000053 82.120995 1263.721436
[BN_LookIK]
48 193.241119 1380.371704 -0.002861 0.000000 89.965736 -31.038179 1393.832153
49 193.241119 1380.371704 -0.002861 0.000000 89.965736 -31.038179 1393.832153
50 193.241119 1380.371704 -0.002861 0.000000 89.965736 -31.038179 1393.832153
[bottomMouth]
48 -435.092926 615.759399 -0.000954 -0.000022 0.000016 73.527184 753.966492
49 -435.092926 615.759399 -0.000954 -0.000022 0.000016 73.527184 753.966492
50 -435.092926 615.759399 -0.000954 -0.000022 0.000016 73.527184 753.966492
[L_Mouth01]
48 554.440979 7.658243 838.222046 150.204178 23.759130 109.605339 1005.027161
49 554.440979 7.658243 838.222046 150.204178 23.759130 109.605339 1005.027161
50 554.440979 7.658243 838.222046 150.204178 23.759130 109.605339 1005.027161
[L_mouthFront]
48 551.629089 934.514771 339.150421 0.000081 2.804060 79.119301 1136.941284
49 551.629089 934.514771 339.150421 0.000081 2.804060 79.119301 1136.941284
50 551.629089 934.514771 339.150421 0.000081 2.804060 79.119301 1136.941284
[mouthGun]
48 55.332661 1627.420898 0.000000 0.000023 0.000009 -11.038128 1628.361328
49 55.332661 1627.420898 0.000000 0.000023 0.000009 -11.038128 1628.361328
50 55.332661 1627.420898 0.000000 0.000023 0.000009 -11.038128 1628.361328
[R_Mouth01]
48 554.442383 7.659197 -838.223938 29.795891 -23.759109 109.605331 1005.029541
49 554.442383 7.659197 -838.223938 29.795891 -23.759109 109.605331 1005.029541
50 554.442383 7.659197 -838.223938 29.795891 -23.759109 109.605331 1005.029541
[R_mouthFront]
48 551.629089 934.514282 -339.151367 0.000029 -2.803930 79.119133 1136.941162
49 551.629089 934.514282 -339.151367 0.000029 -2.803930 79.119133 1136.941162
50 551.629089 934.514282 -339.151367 0.000029 -2.803930 79.119133 1136.941162
[TopMouth]
48 461.269867 -56.106091 -0.008583 -0.000059 -0.000268 92.025169 464.669525
49 461.269867 -56.106091 -0.008583 -0.000059 -0.000268 92.025169 464.669525
50 461.269867 -56.106091 -0.008583 -0.000059 -0.000268 92.025169 464.669525
[weapon_bone]
48 -987.239868 1448.372803 0.001431 0.000000 89.965736 -31.038221 1752.833740
49 -987.239868 1448.372803 0.001431 0.000000 89.965736 -31.038221 1752.833740
50 -987.239868 1448.372803 0.001431 0.000000 89.965736 -31.038221 1752.833740
